<?xml version="1.0" encoding="utf-8"?>
<!-- Generator: Adobe Illustrator 18.1.1, SVG Export Plug-In . SVG Version: 6.00 Build 0)  -->
<svg version="1.1"
	 id="Layer_1" xmlns:dc="http://purl.org/dc/elements/1.1/" xmlns:cc="http://creativecommons.org/ns#" xmlns:rdf="http://www.w3.org/1999/02/22-rdf-syntax-ns#" xmlns:svg="http://www.w3.org/2000/svg"
	 xmlns="http://www.w3.org/2000/svg" xmlns:xlink="http://www.w3.org/1999/xlink" x="0px" y="0px"
	 viewBox="-106 220.998993 285.306671 60.000999" enable-background="new -106 220.998993 285.306671 60.000999"
	 xml:space="preserve">
<g id="g11" transform="translate(-0.665,0)">
	<path id="path13" fill="#204156" d="M-93.763,262.352997c-0.514-1.55899-0.768997-3.527008-0.768997-6.173004
		c0-2.647003,0.254997-4.619003,0.768997-6.173996c1.435997-4.462006,5.239998-6.900009,10.221001-6.900009
		c3.698997,0,6.627998,1.505005,8.582001,3.891998c0.151001,0.206009,0.201996,0.517014-0.052002,0.723999l-3.235001,2.854004
		c-0.257996,0.209-0.514,0.156998-0.721001-0.10199c-1.234001-1.400009-2.517998-2.180008-4.572998-2.180008
		c-2.208,0-3.902,1.089996-4.623001,3.268997c-0.408005,1.248001-0.513,2.699005-0.513,4.618011
		c0,1.918976,0.103996,3.423004,0.513,4.668976c0.720001,2.125,2.415001,3.215027,4.623001,3.215027
		c2.055,0,3.338997-0.779022,4.572998-2.176025c0.207001-0.263,0.462997-0.263,0.721001-0.054993l3.235001,2.854004
		c0.253998,0.207001,0.203003,0.46701,0.052002,0.72699c-1.953003,2.335999-4.882004,3.83902-8.582001,3.83902
		C-88.523003,269.251984-92.327003,266.811981-93.763,262.352997"/>
	<path id="path15" fill="#204156" d="M18.476997,262.352997c-0.514-1.55899-0.768997-3.527008-0.768997-6.173004
		c0-2.647003,0.254997-4.619003,0.768997-6.173996c1.439003-4.462006,5.239006-6.900009,10.219994-6.900009
		c3.699997,0,6.630005,1.505005,8.580994,3.891998c0.153,0.206009,0.205994,0.517014-0.052994,0.723999l-3.236008,2.854004
		c-0.257004,0.209-0.511993,0.156998-0.718002-0.10199c-1.231995-1.400009-2.516998-2.180008-4.574005-2.180008
		c-2.207001,0-3.903,1.089996-4.621002,3.268997c-0.412003,1.248001-0.511993,2.699005-0.511993,4.618011
		c0,1.918976,0.100006,3.423004,0.511993,4.668976c0.718002,2.125,2.414001,3.215027,4.621002,3.215027
		c2.057007,0,3.341995-0.779022,4.574005-2.176025c0.205994-0.263,0.462006-0.263,0.718002-0.054993l3.235992,2.854004
		c0.259003,0.207001,0.205994,0.46701,0.052994,0.72699c-1.951004,2.335999-4.880997,3.83902-8.580994,3.83902
		c-4.981003-0.002014-8.780998-2.442017-10.220001-6.901001"/>
	<path id="path17" fill="#204156" d="M148.201996,268.682983c-0.307999,0-0.513-0.205994-0.513-0.519989v-14.421005
		c0-3.216995-1.593994-5.449005-4.677002-5.449005c-2.979004,0-4.725006,2.231003-4.725006,5.449005v14.421005
		c0,0.312988-0.207001,0.519989-0.513,0.519989h-4.727997c-0.307999,0-0.514999-0.205994-0.514999-0.519989v-14.421005
		c0-3.216995-1.591995-5.449005-4.669998-5.449005c-2.981003,0-4.729004,2.231003-4.729004,5.449005v14.421005
		c0,0.312988-0.205002,0.519989-0.514008,0.519989h-4.725998c-0.309998,0-0.513-0.205994-0.513-0.519989v-23.968002
		c0-0.312012,0.203003-0.520004,0.513-0.520004h4.725998c0.309006,0,0.514008,0.207993,0.514008,0.520004v1.815994h0.052002
		c1.080002-1.557007,3.235992-2.904999,6.522995-2.904999c2.929001,0,5.292007,1.190994,6.779007,3.319h0.052994
		c1.899994-2.072998,4.367004-3.319,7.912003-3.319c5.751007,0,8.98999,3.942001,8.98999,9.285995v15.770004
		c0,0.313995-0.207001,0.520996-0.515991,0.520996h-4.723007l0,0H148.201996z"/>
	<path id="path19" fill="#204156" d="M160.578003,278.019989c-0.307007,0-0.511993-0.208008-0.511993-0.520996v-4.149017
		c0-0.309998,0.204987-0.520996,0.511993-0.520996h0.925995c1.950989,0,2.929993-0.877991,3.699005-2.954987l0.720001-2.126984
		L156.881012,244.194c-0.104004-0.312012,0.102997-0.520004,0.412994-0.520004h5.084015
		c0.308014,0,0.514008,0.207993,0.614014,0.520004l5.60199,16.34201h0.101013l5.343994-16.34201
		c0.102997-0.312012,0.30899-0.520004,0.614014-0.520004h4.878998c0.311005,0,0.516998,0.207993,0.411987,0.520004
		L170.494019,270.237c-2.156006,5.915009-4.213989,7.781006-8.321991,7.781006l-1.593994,0.001984l0,0H160.578003z"/>
	<path id="path21" fill="#204156" d="M-70.234001,262.35498c-0.565002-1.766998-0.821999-3.425995-0.821999-6.174988
		c0-2.744995,0.256996-4.406006,0.821999-6.166c1.387001-4.358002,5.184998-6.901001,10.218002-6.901001
		c4.98,0,8.779999,2.542007,10.167,6.901001c0.562,1.759995,0.820999,3.421005,0.820999,6.166
		c0,2.748993-0.258999,4.40799-0.820999,6.174988c-1.388,4.355011-5.187,6.895996-10.167,6.895996
		C-65.049004,269.251984-68.847,266.710999-70.234001,262.35498 M-55.395,260.798981
		c0.411999-1.294983,0.514-2.48999,0.514-4.617981c0-2.122009-0.102001-3.265015-0.514-4.612
		c-0.717999-2.073013-2.311001-3.269012-4.620998-3.269012c-2.308998,0-3.955002,1.195999-4.672005,3.269012
		c-0.408997,1.347992-0.513,2.48999-0.513,4.612c0,2.127991,0.104004,3.322998,0.513,4.617981
		c0.717003,2.076996,2.364002,3.266022,4.672005,3.266022C-57.705997,264.063995-56.112999,262.875-55.395,260.798981"/>
	<path id="path23" fill="#204156" d="M51.042999,243.105988c-4.059006,0-6.779999,0.985001-8.785004,2.438004
		c-0.203003,0.158005-0.255997,0.414001-0.100006,0.673004l1.895996,3.425995c0.158997,0.26001,0.462997,0.311996,0.722,0.104004
		c1.182007-0.931992,2.875-1.712997,5.651001-1.712997c4.046997,0,5.421005,1.227997,5.490997,3.927002h0.001007v0.03299
		c0.001999,0.063004,0.001999,0.127014,0.001999,0.194v8.093994c0,2.853027-1.951004,4.251007-5.494003,4.251007
		c-2.776001,0-4.263992-1.035004-4.263992-3.108978c0-2.335999,1.645004-3.376007,5.341995-3.376007l1.123993,0.001984
		c0.307999,0,0.514999-0.208008,0.514999-0.516998v-3.325989c0-0.309998-0.207001-0.516998-0.514999-0.516998h-0.246994
		l-1.800995-0.001007c-6.112,0-9.916992,2.493988-9.916992,7.938019c0,5.240997,3.804993,7.625977,8.322998,7.625977
		c3.490005,0,5.802994-1.191986,6.985001-2.903992h0.050003v1.81601c0,0.311981,0.207993,0.519989,0.514999,0.519989h4.313995
		c0.309006,0,0.514999-0.207001,0.514999-0.519989v-16.34201c0.001007-6.121002-2.772003-8.716995-10.322998-8.716995"/>
	<path id="path25" fill="#204156" d="M-10.328003,253.686996c-0.134003,0-0.222,0.089005-0.222,0.222992v0.147995v0.434006v2.748001
		v0.368988v0.213013c0,0.134003,0.087997,0.223999,0.222,0.223999h0.127998H2.391998
		c0.360001,0,0.566002-0.205994,0.566002-0.514984c0-4.050018-0.259003-5.763016-0.821999-7.525009
		c-1.389-4.254013-5.085999-6.899002-10.171997-6.899002c-4.931,0-8.731003,2.541-10.120003,6.899002
		c-0.511002,1.607986-0.821999,3.580002-0.821999,6.173996s0.360001,4.511993,0.876999,6.122009
		c1.386002,4.355988,5.083,6.949982,10.321999,6.949982c4.57,0,8.066002-1.763977,10.169998-4.253998
		c0.204002-0.257996,0.204002-0.516998-0.052002-0.72699l-3.028-2.696991c-0.259003-0.207001-0.514999-0.153015-0.773003,0.103973
		c-1.231003,1.350006-3.028999,2.387024-5.803001,2.387024c-2.771004,0-4.724998-1.348022-5.546997-3.785004
		c-0.124001-0.341003-0.226997-0.699005-0.292-1.088013h-0.000999c-0.186996-1.056-0.296997-2.083984-0.296997-3.593994
		c0.040001-1.423004,0.122002-2.332001,0.323997-3.487c0.001999-0.016006,0.004997-0.029999,0.008003-0.044998
		c0.001999-0.012009,0.003998-0.020996,0.005997-0.033005v0.001007c0.049004-0.272003,0.115997-0.528,0.198997-0.783005
		c0.667999-2.022995,2.516998-3.216003,4.882004-3.216003c2.311996,0,4.157997,1.193008,4.826004,3.216003
		c0.207001,0.625992,0.307999,1.244995,0.307999,2.128998c0,0.207001-0.101997,0.309006-0.307999,0.309006h-6.749001
		l0.000999-0.001007l-0.422997-0.000992C-10.327995,253.686996-10.327995,253.686996-10.328003,253.686996z"/>
	<path id="path27" fill="#204156" d="M-23.75,233.406998h-4.718002c-0.310997,0-0.515999,0.207001-0.515999,0.514999v12.121002l0,0
		v10.023987c0,0.027008,0,0.054016,0,0.080017c0,0.027008,0,0.053986,0,0.079987v1.330994h-0.026001
		c-0.055,1.430023-0.209999,2.370026-0.485001,3.251007c-0.667,2.070007-2.260002,3.209015-4.616997,3.209015
		c-2.307999,0-3.897003-1.139008-4.567001-3.209015c-0.358002-1.140991-0.510002-2.382996-0.510002-4.661987
		c0-2.278,0.152-3.52301,0.510002-4.660004c0.656998-2.031006,2.195-3.177994,4.427002-3.222992h2.014
		c0.098-0.024002,0.162003-0.101013,0.162003-0.213013l0.026001-4.735992c0-0.121002-0.075996-0.201996-0.188004-0.216003
		l-1.608002-0.005997H-35.736v0.000992c-4.135002,0.044006-7.161999,2.059998-8.43,6.005005
		c-0.616001,1.919006-0.872002,3.682999-0.872002,7.048004c0,3.365997,0.256001,5.127991,0.872002,7.042999
		c1.282001,3.98999,4.360001,6.01001,8.565002,6.01001c3.335999,0,5.388-1.241028,6.565002-2.953003h0.050003v1.86499
		c0,0.312012,0.206001,0.519012,0.515999,0.519012h4.718002c0.307999,0,0.514-0.206024,0.514-0.519012v-34.190002
		c0.001999-0.30899-0.204002-0.514999-0.512001-0.514999"/>
	<path id="path29" fill="#204156" d="M99.934998,253.686996c-0.132004,0-0.222,0.089005-0.222,0.222992v0.147995v0.434006v2.748001
		v0.368988v0.213013c0,0.134003,0.089996,0.223999,0.222,0.223999h0.130005h12.593002
		c0.358994,0,0.565002-0.205994,0.565002-0.514984c0-4.050018-0.257996-5.763016-0.820999-7.525009
		c-1.389008-4.254013-5.087006-6.899002-10.171005-6.899002c-4.932007,0-8.731995,2.541-10.121002,6.899002
		c-0.511993,1.607986-0.822006,3.580002-0.822006,6.173996s0.360001,4.511993,0.876999,6.122009
		c1.384995,4.355988,5.082993,6.949982,10.322006,6.949982c4.570007,0,8.065994-1.763977,10.171005-4.253998
		c0.203995-0.257996,0.203995-0.516998-0.052994-0.72699l-3.028-2.696991c-0.257996-0.207001-0.514008-0.153015-0.772003,0.103973
		c-1.231003,1.350006-3.028,2.387024-5.804001,2.387024c-2.770996,0-4.723999-1.348022-5.546997-3.785004
		c-0.123001-0.341003-0.227005-0.699005-0.289993-1.088013H97.16301c-0.188004-1.056-0.298004-2.083984-0.298004-3.593994
		c0.037994-1.423004,0.119995-2.332001,0.322998-3.487c0.003998-0.016006,0.005997-0.029999,0.007996-0.044998
		c0.001999-0.012009,0.003998-0.020996,0.005997-0.033005v0.001007c0.050995-0.272003,0.117004-0.528,0.199997-0.783005
		c0.667007-2.022995,2.516998-3.216003,4.882004-3.216003c2.311996,0,4.158005,1.193008,4.826004,3.216003
		c0.205994,0.625992,0.309006,1.244995,0.309006,2.128998c0,0.207001-0.102997,0.309006-0.309006,0.309006h-6.748993v-0.001007
		l-0.425995-0.000992l0,0H99.934998z"/>
	<path id="path31" fill="#204156" d="M86.757996,233.406998h-4.727005c-0.309006,0-0.514999,0.207993-0.514999,0.515991v12.138
		v10.039993v0.07901v0.080994v1.333008h-0.024994c-0.056,1.432007-0.212006,2.372986-0.487,3.255005
		c-0.667999,2.074005-2.264008,3.216003-4.623001,3.216003c-2.309998,0-3.901993-1.141998-4.572998-3.216003
		c-0.356995-1.143005-0.513-2.386017-0.513-4.669006c0-2.280991,0.154007-3.528992,0.513-4.666992
		c0.656998-2.033997,2.197998-3.171997,4.434006-3.21701l2.016998,0.001007c0.309006,0,0.514999-0.207001,0.514999-0.516006
		v-4.156998c0-0.309998-0.205994-0.516998-0.514999-0.516998h-0.246994l-3.048996-0.000992c-0.024002,0-0.048004,0-0.070999,0
		s-0.044006,0-0.065994,0h-0.070007v0.000992c-4.139999,0.042999-7.171997,2.063004-8.440994,6.014008
		c-0.617004,1.921997-0.873001,3.686996-0.873001,7.057007c0,3.371002,0.255997,5.136993,0.873001,7.054993
		c1.283005,3.993988,4.367004,6.018005,8.578003,6.018005c3.339996,0,5.395004-1.242004,6.574997-2.957001h0.050003v1.867004
		c0,0.313995,0.205994,0.519989,0.516006,0.519989h4.725998c0.307999,0,0.514999-0.204987,0.514999-0.519989v-34.238007
		c-0.003998-0.309006-0.210007-0.516006-0.516998-0.516006"/>
	<path id="path33" fill="#204156" d="M18.091003,275.755981v4.72702c0,0.311005,0.206001,0.516998,0.514999,0.516998h17.516006
		c0.313004,0,0.520004-0.207001,0.520004-0.516998v-4.72702c0-0.306976-0.207001-0.513977-0.520004-0.513977H18.60601
		c-0.308998,0-0.514999,0.207001-0.514999,0.513977"/>
	<path id="path35" fill="#204156" d="M13.643997,221.166c-0.007996-0.008011-0.013-0.018005-0.019997-0.025009
		c-0.000999-0.000992-0.001999-0.000992-0.001999-0.000992c-0.090004-0.089005-0.218002-0.141006-0.370003-0.141006h-0.005997
		H-104.819c-0.039001,0-0.075996,0.003998-0.112,0.009995c-0.010002,0.001999-0.018997,0.006012-0.029999,0.008011
		c-0.023003,0.005997-0.048004,0.011002-0.069,0.019989c-0.003998,0.001007-0.007004,0.003006-0.010002,0.005005
		c-0.182999,0.074997-0.294998,0.246002-0.294998,0.472v0.001999v58.959991v0.003998c0,0.180023,0.07,0.321014,0.187996,0.411011
		c0.009003,0.009003,0.017006,0.016998,0.029007,0.02301v0.000977c0.081993,0.052002,0.181999,0.080017,0.298996,0.080017H13.245003
		h0.005997c0.174004,0,0.315002-0.067017,0.403999-0.182007c0.07-0.085999,0.111-0.199005,0.111-0.333984v-0.004028v-58.958984
		v-0.001999c0-0.141006-0.044998-0.259995-0.122002-0.348007 M-99.069,275.23999c-0.037003,0-0.072998-0.002991-0.105003-0.007996
		c-0.009995-0.002014-0.020996-0.006989-0.030998-0.01001c-0.024002-0.005005-0.047997-0.009979-0.07-0.018982
		c-0.003998-0.001007-0.005997-0.003998-0.010002-0.005005c-0.181999-0.074005-0.292999-0.244019-0.293999-0.468018v-42.735992
		v-4.724991c0-0.227005,0.112-0.396011,0.293999-0.472c0.005005-0.001007,0.008003-0.003998,0.011002-0.005005
		c0.021004-0.007996,0.089005-0.024994,0.099998-0.028c0.034004-0.005005,0.07-0.007996,0.107002-0.007996H7.497002
		c0.038002,0,0.072998,0.002991,0.107002,0.007996c0.011002,0.003006,0.021004,0.007004,0.029999,0.009995
		c0.024002,0.005005,0.047997,0.01001,0.07,0.019012c0.004997,0.000992,0.007004,0.003998,0.011002,0.00499
		c0.182999,0.074997,0.293999,0.24501,0.293999,0.472v47.460999c-0.000999,0.225006-0.112999,0.394989-0.292999,0.468994
		c-0.003998,0.001007-0.005997,0.003998-0.011002,0.005005c-0.021004,0.007996-0.045998,0.014008-0.069,0.019012
		c-0.011002,0.002991-0.019997,0.007996-0.030998,0.01001c-0.033997,0.005981-0.067001,0.007996-0.103996,0.007996h-106.57
		C-99.068993,275.242004-99.068993,275.23999-99.069,275.23999z"/>
</g>
</svg>
