<?xml version="1.0" encoding="utf-8"?>
<!-- Generator: Adobe Illustrator 18.1.1, SVG Export Plug-In . SVG Version: 6.00 Build 0)  -->
<svg version="1.1" id="Layer_1" xmlns="http://www.w3.org/2000/svg" xmlns:xlink="http://www.w3.org/1999/xlink" x="0px" y="0px"
	 viewBox="0 0 488.122101 129.874496" enable-background="new 0 0 488.122101 129.874496" xml:space="preserve">
<g>
	<path fill="#100E0F" d="M100.375,55.587399H60.018597c-1.041096,0-1.885796,0.8452-1.885796,1.8867v19.730499
		c0,1.041,0.8447,1.888702,1.885796,1.888702h15.743099v24.513603c0,0-3.535095,1.205093-13.307598,1.205093
		c-11.530296,0-27.636696-4.212898-27.636696-39.631294c0-35.425301,16.7715-40.086502,32.517597-40.086502
		c13.629799,0,19.5019,2.399401,23.238197,3.5562c1.173897,0.3594,2.259804-0.809601,2.259804-1.851101L97.334999,7.7353
		c0-0.4878-0.1651-1.0747-0.720703-1.4731C95.096695,5.1797,85.839798,0,62.454098,0C35.512699,0,7.8779,11.4619,7.8779,66.561996
		c0,55.101601,31.639702,63.3125,58.301796,63.3125c22.076202,0,35.468704-9.433594,35.468704-9.433594
		c0.551796-0.304703,0.611397-1.076202,0.611397-1.429703V57.474098C102.259796,56.432598,101.416,55.587399,100.375,55.587399z"/>
	<path fill="#100E0F" d="M308.352478,6.602c0-1.0498-0.832001-1.8969-1.872986-1.8969h-22.722687
		c-1.038025,0-1.881805,0.8471-1.881805,1.8969c0,0.0049,0.00589,43.912598,0.00589,43.912598h-35.418991V6.602
		c0-1.0498-0.835892-1.8969-1.875-1.8969h-22.72171c-1.034088,0-1.876892,0.8471-1.876892,1.8969v118.903404
		c0,1.048798,0.842804,1.902298,1.876892,1.902298h22.72171c1.039108,0,1.875-0.8535,1.875-1.902298V74.646004h35.418991
		c0,0-0.061584,50.855499-0.061584,50.859398c0,1.048798,0.842773,1.902298,1.881897,1.902298h22.776276
		c1.041107,0,1.873108-0.8535,1.875-1.902298V6.602z"/>
	<g>
		<g>
			<path fill="#100E0F" d="M143.253891,22.204599c0-8.1817-6.559601-14.793499-14.65329-14.793499
				c-8.085007,0-14.649406,6.6118-14.649406,14.793499c0,8.173801,6.5644,14.803701,14.649406,14.803701
				C136.69429,37.008301,143.253891,30.378401,143.253891,22.204599z"/>
			<path fill="#100E0F" d="M141.628891,100.423302c0-3.046799,0-54.8862,0-54.8862c0-1.042004-0.84079-1.894001-1.879898-1.894001
				h-22.651299c-1.039101,0-1.968796,1.071701-1.968796,2.113701c0,0,0,66.045395,0,78.6353
				c0,2.310501,1.440399,2.998001,3.303696,2.998001c0,0,9.668007,0,20.408195,0c2.239304,0,2.788101-1.099602,2.788101-3.035095
				C141.628891,120.140099,141.628891,103.628403,141.628891,100.423302z"/>
		</g>
	</g>
	<path fill="#100E0F" d="M394.709991,43.8218h-22.548889c-1.034088,0-1.875916,0.852501-1.875916,1.901299v58.301804
		c0,0-5.728607,4.191399-13.859406,4.191399c-8.129883,0-10.288086-3.689499-10.288086-11.650398
		c0-7.970703,0-50.842804,0-50.842804c0-1.048798-0.839813-1.901299-1.875-1.901299h-22.884796
		c-1.033203,0-1.878906,0.852501-1.878906,1.901299c0,0,0,31.047905,0,54.692398c0,23.6465,13.178711,29.431702,31.308594,29.431702
		c14.873108,0,26.865295-8.216797,26.865295-8.216797s0.571198,4.330002,0.829132,4.843697
		c0.258667,0.511703,0.93158,1.029305,1.659088,1.029305l14.558594-0.0644c1.033203,0,1.878906-0.8536,1.878906-1.898506
		l-0.006805-79.817398C396.591797,44.674301,395.748993,43.8218,394.709991,43.8218z"/>
	<path fill="#100E0F" d="M456.338898,41.150902c-12.806702,0-21.517609,5.713799-21.517609,5.713799V6.602
		c0-1.0498-0.838898-1.8969-1.875-1.8969H410.15918c-1.036194,0-1.877899,0.8471-1.877899,1.8969v118.903404
		c0,1.048798,0.841705,1.902298,1.880798,1.902298c0.002014,0,15.804718,0,15.809601,0
		c0.711914,0,1.251007-0.367203,1.649414-1.009796c0.392609-0.638603,0.959991-5.482407,0.959991-5.482407
		s9.317291,8.830109,26.957001,8.830109c20.708008,0,32.584015-10.503906,32.584015-47.154305
		C488.122101,45.940399,469.155273,41.150902,456.338898,41.150902z M447.445282,108.143997
		c-7.821289-0.238197-13.126007-3.787094-13.126007-3.787094V66.702599c0,0,5.233398-3.2075,11.654327-3.7812
		c8.120178-0.727097,15.944397,1.725605,15.944397,21.095699C461.917999,104.442902,458.386688,108.474098,447.445282,108.143997z"
		/>
	<path fill="#100E0F" d="M206.935501,43.632301h-17.044907c0,0-0.025406-22.513201-0.025406-22.518101
		c0-0.852501-0.439392-1.278301-1.424789-1.278301h-23.227509c-0.90329,0-1.387695,0.397501-1.387695,1.265202v23.269501
		c0,0-11.640594,2.810097-12.427704,3.037098c-0.783203,0.227501-1.360397,0.950199-1.360397,1.8125V63.8428
		c0,1.051701,0.839905,1.899899,1.878906,1.899899h11.909195c0,0,0,15.2939,0,35.178703
		c0,26.128899,18.328094,28.695297,30.695297,28.695297c5.651398,0,12.411102-1.814499,13.527405-2.226601
		c0.674789-0.248001,1.067291-0.947197,1.067291-1.705101l0.0186-16.085899c0-1.048798-0.885788-1.898399-1.883789-1.898399
		c-0.99321,0-3.53421,0.404305-6.150406,0.404305c-8.372101,0-11.209-3.892601-11.209-8.931702
		c0-5.035103-0.001007-33.430603-0.001007-33.430603h17.045914c1.039093,0,1.88089-0.848198,1.88089-1.899899V45.526798
		C208.816391,44.477501,207.974594,43.632301,206.935501,43.632301z"/>
</g>
</svg>
