<?xml version="1.0" encoding="utf-8"?>
<!-- Generator: Adobe Illustrator 18.1.1, SVG Export Plug-In . SVG Version: 6.00 Build 0)  -->
<svg version="1.1"
	 id="svg3070" xmlns:sodipodi="http://sodipodi.sourceforge.net/DTD/sodipodi-0.dtd" xmlns:inkscape="http://www.inkscape.org/namespaces/inkscape" xmlns:dc="http://purl.org/dc/elements/1.1/" xmlns:cc="http://creativecommons.org/ns#" xmlns:rdf="http://www.w3.org/1999/02/22-rdf-syntax-ns#" xmlns:svg="http://www.w3.org/2000/svg" inkscape:version="0.48.0 r9654" sodipodi:docname="New document 4"
	 xmlns="http://www.w3.org/2000/svg" xmlns:xlink="http://www.w3.org/1999/xlink" x="0px" y="0px"
	 viewBox="-104 211.540009 291 79.459999" enable-background="new -104 211.540009 291 79.459999" xml:space="preserve">
<sodipodi:namedview  fit-margin-left="0" fit-margin-top="0" showgrid="false" inkscape:cy="33.703355" inkscape:cx="142.93233" inkscape:zoom="2.8" borderopacity="1.0" bordercolor="#666666" pagecolor="#ffffff" id="base" inkscape:window-maximized="1" inkscape:window-y="-8" fit-margin-right="0" inkscape:window-x="-8" inkscape:document-units="px" inkscape:window-height="750" inkscape:pageshadow="2" inkscape:window-width="1280" inkscape:pageopacity="0.0" inkscape:current-layer="layer1" fit-margin-bottom="0">
	</sodipodi:namedview>
<g id="layer1" transform="translate(-200.55198,-393.96227)" inkscape:label="Layer 1" inkscape:groupmode="layer">
	<g id="g3019" transform="matrix(1.018827,0,0,-1.018827,170.5996,498.03288)">
		<path id="path14" inkscape:connector-curvature="0" fill="#006699" d="M137.251617-112.59494
			c0,2.959999,2.460403,5.361,5.495605,5.361h63.376007c3.035095,0,5.495605-2.401001,5.495605-5.361v-64.116989
			c0-2.961014-2.46051-5.361008-5.495605-5.361008h-63.376007c-3.035202,0-5.495605,2.399994-5.495605,5.361008V-112.59494z"/>
		<path id="path16" inkscape:connector-curvature="0" d="M-70.926575-169.921936h31.035603v10.188995h-19.804199v38.874001
			h-11.231403C-70.926575-120.85894-70.926575-169.921936-70.926575-169.921936z"/>
		<path id="path18" inkscape:connector-curvature="0" d="M-24.178076-169.921936v33.792984h-11.232397v-33.792984H-24.178076z
			 M-29.794279-131.514954c3.917,0,6.355003,2.595001,6.355003,5.840004c-0.072998,3.315002-2.438004,5.836998-6.280304,5.836998
			c-3.842794,0-6.355001-2.522003-6.355001-5.836998c0-3.245003,2.4375-5.840004,6.206999-5.840004h0.072998H-29.794279z"/>
		<path id="path20" inkscape:connector-curvature="0" d="M-18.962774-169.921936h11.232497v18.871994
			c0,1.009995,0.072998,2.018997,0.370102,2.740997c0.811501,2.016998,2.659599,4.106995,5.762703,4.106995
			c4.064903,0,5.690902-3.099991,5.690902-7.639984v-18.080002h11.2314v19.376999c0,10.37999-5.542,15.209991-12.932097,15.209991
			c-6.059097,0-8.719704-3.387009-10.1978-5.694h0.074997v4.899994h-11.232497c0.147499-3.17099,0-33.792984,0-33.792984H-18.962774
			z"/>
		<path id="path22" inkscape:connector-curvature="0" d="M31.170525-120.85894H19.937622v-49.062996h11.232903v10.955994
			l2.807205,3.534012l8.7939-14.490005h13.817902l-14.778305,20.977005l12.931595,14.271988H41.220314
			c0,0-9.236801-12.768997-10.049805-14.28299v28.096992H31.170525z"/>
		<path id="path24" inkscape:connector-curvature="0" d="M86.628029-155.825943
			c0.147507,0.867996,0.369705,2.533005,0.369705,4.415009c0,8.735992-4.434601,17.603989-16.109406,17.603989
			c-12.4888,0-18.252396-9.876999-18.252396-18.834991c0-11.080002,7.020004-18,19.286606-18
			c4.877396,0,9.384293,0.720001,13.079605,2.234009l-1.4785,7.417999c-3.029297-1.005005-6.132904-1.507004-9.975098-1.507004
			c-5.246597,0-9.827698,2.153-10.1978,6.742996l23.277298-0.069992L86.628029-155.825943z M63.277534-148.226944
			c0.295395,2.884003,2.216797,7.138,7.020004,7.138c5.097595,0,6.280701-4.542999,6.280701-7.138H63.277534z"/>
		<path id="path26" inkscape:connector-curvature="0" d="M114.722816-120.85894v-16.984001h-0.147507
			c-1.626007,2.376999-5.025894,3.962997-9.532196,3.962997c-8.6465,0-16.257294-6.919998-16.184097-18.740997
			c0-10.957993,6.872604-18.093994,15.444305-18.093994c4.655304,0,9.088898,2.018997,11.305695,5.911987h0.222198
			l0.443298-5.118988h9.976585c-0.147995,2.378998-0.296906,6.487991-0.296906,10.524002v38.538994h-11.231392H114.722816z
			 M114.722816-154.279938c0-0.863998-0.074005-1.729996-0.222198-2.449997c-0.664093-3.100006-3.325195-5.262009-6.575699-5.262009
			c-4.655701,0-7.685501,3.748001-7.685501,9.658997c0,5.550003,2.586899,10.018997,7.758804,10.018997
			c3.472595,0,5.911606-2.377991,6.577103-5.332993c0.147507-0.649994,0.147507-1.371002,0.147507-2.018997v-4.613998H114.722816z"
			/>
		<path id="path28" inkscape:connector-curvature="0" fill="#FFFFFF" d="M159.794617-169.881943v33.793991h-11.232498v-33.793991
			H159.794617z M154.178314-131.473953c3.916992,0,6.355011,2.595001,6.355011,5.838005
			c-0.072998,3.316002-2.437988,5.838997-6.280701,5.838997c-3.8423,0-6.354492-2.523003-6.354492-5.838997
			c0-3.243004,2.4375-5.838005,6.207001-5.838005h0.072998H154.178314z"/>
		<path id="path30" inkscape:connector-curvature="0" fill="#FFFFFF" d="M166.009918-169.881943h11.232391v18.872009
			c0,1.009995,0.072998,2.018997,0.369598,2.740997c0.812012,2.018005,2.660187,4.107986,5.763214,4.107986
			c4.064514,0,5.690399-3.098984,5.690399-7.641983v-18.07901h11.231506v19.376999
			c0,10.37999-5.541504,15.209991-12.93161,15.209991c-6.059601,0-8.719788-3.386993-10.197815-5.694h0.075012v4.901001h-11.232391
			c0.1474-3.17099,0-33.793991,0-33.793991H166.009918z"/>
	</g>
</g>
</svg>
